<svg width="192" height="192" viewBox="0 0 192 192" fill="none" xmlns="http://www.w3.org/2000/svg">
  <style>
    @media (prefers-color-scheme:light) {circle{fill:#d4d4d4;stroke:#006aa3;}}
    @media (color-gamut: p3) {fill: color(display-p3 1 0 0 / 1);}
  </style>
<circle cx="98" cy="98" r="98" fill="#16212A"/>
<path d="M95.5469 41.184C108.315 41.184 117.723 43.632 123.771 48.528C129.915 53.328 132.987 60.624 132.987 70.416C132.987 75.888 131.979 80.448 129.963 84.096C127.947 87.744 125.355 90.672 122.187 92.88C119.115 94.992 115.851 96.672 112.395 97.92L140.619 144H125.499L100.587 101.52H80.1389V144H67.1789V41.184H95.5469ZM94.8269 52.416H80.1389V90.576H95.5469C103.899 90.576 109.995 88.944 113.835 85.68C117.675 82.32 119.595 77.424 119.595 70.992C119.595 64.272 117.579 59.52 113.547 56.736C109.515 53.856 103.275 52.416 94.8269 52.416Z" fill="#006aa3"/>
</svg>
