<svg width="192" height="192" viewBox="0 0 192 192" fill="none" xmlns="http://www.w3.org/2000/svg">
<circle cx="96" cy="96" r="96" fill="black"/>
<path d="M93.5469 39.184C106.315 39.184 115.723 41.632 121.771 46.528C127.915 51.328 130.987 58.624 130.987 68.416C130.987 73.888 129.979 78.448 127.963 82.096C125.947 85.744 123.355 88.672 120.187 90.88C117.115 92.992 113.851 94.672 110.395 95.92L138.619 142H123.499L98.5869 99.52H78.1389V142H65.1789V39.184H93.5469ZM92.8269 50.416H78.1389V88.576H93.5469C101.899 88.576 107.995 86.944 111.835 83.68C115.675 80.32 117.595 75.424 117.595 68.992C117.595 62.272 115.579 57.52 111.547 54.736C107.515 51.856 101.275 50.416 92.8269 50.416Z" fill="#4082A5"/>
</svg>

