<?xml version="1.0" standalone="no"?>
<!DOCTYPE svg PUBLIC "-//W3C//DTD SVG 20010904//EN"
 "http://www.w3.org/TR/2001/REC-SVG-20010904/DTD/svg10.dtd">
<svg version="1.0" xmlns="http://www.w3.org/2000/svg"
 width="16.000000pt" height="16.000000pt" viewBox="0 0 16.000000 16.000000"
 preserveAspectRatio="xMidYMid meet">
<metadata>
Created by potrace 1.11, written by Peter Selinger 2001-2013
</metadata>
<g transform="translate(0.000000,16.000000) scale(0.002286,-0.002286)"
fill="#000000" stroke="none">
<path d="M3458 6678 c-17 -17 -18 -39 -18 -278 l0 -259 -122 -3 c-101 -2 -123
-6 -124 -18 -1 -8 -2 -23 -3 -32 -1 -17 -24 -18 -326 -18 l-325 0 0 35 0 35
-307 -2 -308 -3 0 -30 0 -30 -125 -5 -125 -5 -2 -191 c-2 -183 -1 -192 18
-197 17 -5 19 -14 19 -87 0 -71 2 -81 18 -79 9 1 31 1 47 0 30 -1 33 -7 26
-73 -1 -5 -16 -8 -34 -8 l-33 0 2 -52 c2 -71 0 -68 32 -68 36 0 40 -5 35 -33
-4 -19 -11 -23 -37 -22 l-31 2 0 -61 c0 -58 1 -60 27 -61 14 0 30 -3 34 -8 4
-4 7 -166 7 -360 l-1 -352 -66 -160 c-64 -152 -270 -577 -336 -695 -168 -295
-364 -583 -529 -780 -35 -41 -133 -143 -217 -227 -98 -97 -154 -160 -154 -173
0 -22 33 -60 51 -60 7 0 64 9 128 19 64 11 136 23 161 26 25 3 57 8 72 11 15
2 101 16 190 30 184 28 181 28 303 48 87 14 131 21 205 32 19 3 58 9 85 14 28
5 68 12 90 15 22 2 58 8 80 12 22 4 43 6 48 5 4 -1 7 4 8 11 1 6 2 592 2 1302
l2 1290 33 1 c17 0 33 -5 33 -10 1 -6 2 -589 3 -1295 l1 -1283 -95 -71 c-267
-200 -616 -382 -935 -487 -55 -18 -108 -39 -117 -48 -21 -18 -24 -65 -5 -79
35 -28 38 -28 452 97 94 29 190 58 215 65 25 7 114 34 198 59 83 25 218 66
300 90 493 148 991 298 1017 307 26 8 28 8 15 -5 -12 -12 -962 -634 -1325
-867 -49 -32 -94 -62 -100 -66 -5 -5 -48 -32 -95 -62 -105 -66 -130 -88 -130
-117 0 -34 37 -65 68 -57 14 3 109 61 211 128 190 125 574 375 1139 741 174
114 327 216 340 227 19 18 22 30 22 104 0 70 -3 86 -20 103 -11 11 -25 20 -31
20 -11 0 -274 -78 -889 -263 -118 -36 -231 -70 -250 -75 -19 -6 -80 -24 -135
-40 -70 -22 -93 -26 -75 -14 128 88 245 173 308 224 l77 63 139 1 c181 2 176
-3 176 173 l0 127 77 90 c268 312 502 709 647 1096 20 53 36 102 36 108 0 5 4
10 9 10 20 0 24 -159 25 -853 1 -712 1 -719 22 -735 17 -15 47 -17 218 -16
170 1 200 4 214 18 16 15 17 78 18 739 1 667 5 847 22 847 4 0 20 -37 35 -83
129 -374 363 -779 643 -1113 l94 -112 0 -127 c0 -117 2 -127 23 -148 21 -21
30 -22 153 -21 l131 2 111 -88 c61 -48 153 -116 204 -150 111 -74 109 -73 72
-61 -35 12 -331 102 -464 141 -52 16 -269 80 -481 144 -213 64 -392 116 -398
116 -6 0 -20 -9 -31 -20 -17 -17 -20 -33 -20 -104 0 -80 1 -85 28 -108 24 -20
426 -282 1454 -950 116 -76 216 -139 222 -139 45 -5 75 18 76 57 0 25 -23 47
-115 106 -237 153 -782 509 -843 549 -40 27 -76 49 -81 49 -5 0 -11 3 -13 8
-3 6 -75 54 -478 315 -47 30 -96 64 -110 76 l-25 21 30 -10 c26 -8 467 -141
1580 -475 176 -52 356 -106 400 -120 169 -51 166 -50 192 -20 47 55 21 81
-127 130 -323 106 -703 307 -955 505 l-60 48 1 1288 c1 709 2 1292 3 1295 2
10 60 6 64 -5 2 -6 3 -590 3 -1299 -1 -1136 1 -1288 14 -1291 8 -2 31 -7 50
-10 19 -3 44 -8 55 -10 11 -2 41 -6 66 -10 48 -7 67 -10 164 -26 197 -32 328
-52 347 -55 13 -1 39 -5 58 -9 19 -3 51 -8 70 -10 19 -3 80 -12 135 -21 55 -9
109 -18 120 -20 59 -8 119 -17 195 -30 108 -19 106 -19 130 5 29 29 25 57 -13
94 -18 17 -68 65 -112 107 -176 167 -310 326 -479 564 -72 101 -206 311 -257
402 -89 158 -123 223 -214 408 -56 116 -126 266 -155 335 l-53 125 1 365 c0
201 1 372 1 381 1 12 9 16 29 14 28 -2 28 -2 29 60 l1 62 -29 -2 c-16 -1 -29
1 -30 4 -7 49 -6 51 26 51 l32 0 -1 58 c-1 54 -2 57 -28 60 -16 2 -28 9 -29
15 0 7 -2 22 -3 35 -3 29 6 34 55 34 l39 -1 0 81 c0 70 2 80 19 85 18 5 19 16
19 199 l0 194 -128 0 -127 0 2 35 1 35 -308 0 -308 0 0 -35 0 -35 -325 0
c-253 0 -325 3 -326 13 -1 6 -2 21 -3 32 -1 19 -9 20 -123 23 l-123 3 0 92 0
93 183 -1 c178 -1 224 4 239 28 4 7 8 78 8 158 0 110 -3 150 -14 165 -14 18
-29 19 -257 20 -223 1 -244 -1 -261 -18z m412 -164 c0 -41 -4 -63 -12 -66 -7
-2 -76 -4 -153 -3 l-140 0 -3 54 c-2 29 -1 59 1 65 3 8 52 11 156 11 l151 0 0
-61z m-1450 -504 c0 -5 -3 -10 -7 -10 -17 -1 -262 -1 -316 -1 -36 1 -56 5 -52
11 4 6 78 10 191 10 116 0 184 -4 184 -10z m1265 0 c7 -12 -53 -13 -343 -10
-20 0 -31 4 -27 10 4 6 77 10 185 10 108 0 181 -4 185 -10z m1265 0 c0 -11 2
-11 -135 -11 -212 0 -236 1 -230 11 4 6 77 10 186 10 113 0 179 -4 179 -10z
m-3025 -92 c0 -33 8 -41 42 -42 25 -1 27 -5 28 -38 l1 -38 -102 0 -103 0 1 68
c0 37 3 71 5 75 3 4 32 7 66 5 59 -3 61 -4 62 -30z m1266 20 c1 -7 0 -23 -1
-35 -1 -22 16 -29 58 -24 12 2 14 -3 14 -39 0 -11 0 -24 -1 -30 -1 -6 -140
-10 -396 -10 l-395 0 0 41 c0 32 3 40 18 38 45 -4 52 0 52 36 l0 35 325 0
c253 0 325 -3 326 -12z m1269 -23 c0 -31 3 -35 28 -36 15 -1 30 -1 35 0 4 0 7
-17 7 -39 l0 -40 -395 0 c-421 0 -397 -3 -397 45 0 33 3 36 35 33 33 -3 32 -4
36 55 1 16 24 17 326 17 l325 0 0 -35z m746 -37 l-1 -73 -100 0 -100 0 0 35
c0 28 4 35 20 36 11 1 27 2 36 3 11 1 15 10 14 29 -1 15 0 30 2 35 2 4 32 7
67 7 l63 0 -1 -72z m-2857 -224 l-1 -224 -114 0 c-63 0 -115 3 -115 8 -3 16
-5 427 -3 433 2 3 55 6 118 6 l115 0 0 -223z m1266 1 l0 -220 -112 -3 c-62 -1
-114 1 -114 5 -3 19 -5 429 -2 434 1 4 54 6 115 5 l113 -1 0 -220z m1270 10
c1 -115 -1 -216 -3 -222 -3 -10 -36 -13 -117 -13 l-114 0 -1 224 -1 223 118
-1 118 -1 0 -210z m-2894 8 c4 -23 5 -220 1 -230 -2 -7 -18 -12 -36 -11 l-33
1 1 91 c1 50 0 96 -2 102 -2 6 -21 9 -47 7 -42 -4 -45 -3 -45 20 0 24 2 24 80
26 44 1 81 -2 81 -6z m1270 -6 c3 -52 4 -214 1 -224 -3 -10 -92 -13 -398 -13
l-394 0 0 124 0 124 395 1 c304 0 395 -2 396 -12z m1269 -113 l0 -124 -394 0
c-306 0 -395 3 -398 13 -3 10 -2 227 1 234 1 1 179 1 396 1 l395 0 0 -124z
m640 101 c0 -21 -4 -24 -28 -21 -62 7 -67 -2 -66 -108 l0 -96 -33 0 c-18 0
-34 3 -34 8 -3 18 -5 228 -2 233 1 4 39 7 83 8 79 1 80 1 80 -24z m-3172 -370
c1 -19 -3 -25 -18 -26 -11 -1 -27 -2 -37 -3 -16 -1 -27 29 -17 46 3 4 20 8 37
8 28 0 33 -4 35 -25z m352 1 c0 -13 -6 -26 -12 -28 -11 -4 -200 -3 -219 1 -4
1 -4 35 0 49 1 1 53 2 116 2 115 0 115 0 115 -24z m914 8 c15 -38 2 -39 -402
-39 l-392 0 0 28 0 27 394 0 c350 0 395 -2 400 -16z m352 -11 l-3 -28 -112 0
c-61 0 -112 2 -112 5 -13 51 -14 50 112 50 l118 0 -3 -27z m914 -1 l0 -27
-392 1 c-216 1 -395 2 -398 3 -3 1 -5 12 -5 26 l0 25 398 0 397 0 0 -28z m356
3 c0 -14 -2 -25 -5 -26 -19 -4 -208 -5 -218 -1 -7 2 -13 15 -13 28 0 24 0 24
118 24 l118 0 0 -25z m192 0 c2 -25 -1 -27 -38 -27 -33 0 -35 1 -36 27 -2 22
2 25 35 25 32 0 37 -3 39 -25z m-2736 -154 c4 0 7 -508 7 -1128 l0 -1128 -108
-107 c-60 -60 -112 -108 -117 -108 -7 0 -12 2441 -5 2471 1 4 196 5 223 0z
m918 -8 c3 -7 5 -104 4 -216 -1 -184 -14 -304 -39 -376 -3 -8 -23 11 -51 49
-25 34 -70 87 -101 118 l-56 57 -1 127 c-2 166 2 162 -150 161 -154 0 -151 3
-151 -161 l1 -125 -54 -56 c-63 -65 -127 -147 -165 -211 l-27 -45 0 345 0 345
393 0 c306 0 393 -3 397 -12z m355 -1231 c0 -683 -2 -1242 -5 -1243 -7 -1
-202 -1 -215 0 -7 1 -10 404 -9 1239 1 680 2 1239 3 1242 0 3 52 6 114 5 l112
0 0 -1243z m915 900 l0 -343 -59 88 c-32 48 -88 117 -122 153 l-64 65 -1 115
c-1 63 -2 123 -3 133 -2 30 -51 42 -161 40 -137 -2 -135 1 -135 -159 l0 -125
-56 -58 c-32 -32 -77 -86 -102 -120 -25 -34 -48 -58 -50 -54 -2 5 -8 26 -12
48 -5 22 -9 42 -10 45 -16 59 -30 446 -17 500 3 13 55 15 398 15 l394 0 0
-343z m347 335 c4 -5 8 -562 8 -1238 0 -978 -3 -1229 -12 -1227 -7 2 -60 50
-118 107 l-104 103 0 1128 c0 620 1 1129 4 1131 7 8 213 4 222 -4z m-1981
-265 c0 -37 -5 -57 -16 -67 -15 -14 -19 -14 -30 0 -12 14 -22 110 -13 127 2 3
15 3 30 -1 26 -7 28 -11 29 -59z m1269 3 c0 -30 -6 -56 -15 -68 -15 -18 -17
-18 -30 -1 -17 19 -21 115 -6 126 5 3 18 3 30 -1 17 -7 20 -17 21 -56z m-1300
-227 c14 0 35 8 45 17 19 18 22 17 73 -36 65 -66 124 -145 165 -220 l30 -55
-25 -80 c-117 -372 -276 -696 -488 -999 -84 -121 -185 -248 -192 -242 -6 6 -3
995 3 1051 20 182 132 405 272 544 51 51 54 53 72 37 11 -10 31 -17 45 -17z
m1277 -3 c11 3 29 12 39 21 16 15 21 12 71 -38 110 -110 195 -254 245 -416
l27 -87 4 -554 3 -553 -29 33 c-51 60 -148 191 -220 299 -186 279 -351 632
-442 947 l-18 61 39 67 c48 83 88 135 156 203 l52 54 26 -20 c14 -12 35 -19
47 -17z m-2338 -1271 c1 -627 -1 -717 -14 -724 -8 -4 -35 -10 -60 -14 -48 -6
-66 -9 -200 -31 -47 -8 -105 -17 -130 -20 -25 -3 -70 -10 -100 -15 -73 -12
-97 -16 -215 -35 -147 -23 -147 -23 -190 -30 -22 -3 -64 -9 -93 -14 l-54 -8
64 66 c34 36 65 68 68 71 154 164 373 468 550 765 82 137 307 574 344 668 11
26 21 45 24 42 3 -3 6 -327 6 -721z m3489 504 c134 -274 245 -469 402 -708 72
-109 219 -315 235 -330 3 -3 25 -30 50 -60 61 -76 210 -241 238 -263 20 -17
32 -45 14 -33 -4 2 -28 7 -52 11 -25 3 -70 10 -100 15 -30 5 -75 12 -100 15
-25 3 -99 15 -165 26 -66 11 -131 22 -145 24 -119 18 -246 37 -264 41 -11 2
-59 9 -106 15 -47 7 -89 16 -94 20 -8 7 -16 1419 -9 1419 1 0 45 -87 96 -192z
m-2943 -1198 c0 -15 -7 -20 -27 -20 -25 0 -26 0 -8 20 10 11 22 20 27 20 4 0
8 -9 8 -20z m2335 0 c18 -20 17 -20 -8 -20 -20 0 -27 5 -27 20 0 11 4 20 8 20
5 0 17 -9 27 -20z"/>
<path d="M542 832 c-30 -23 -40 -83 -18 -116 29 -45 123 -44 141 1 11 30 -8
35 -32 8 -20 -21 -31 -25 -52 -20 -32 8 -41 21 -41 62 0 24 7 37 25 49 23 15
65 12 65 -6 0 -12 29 -20 35 -10 3 5 -3 18 -15 30 -25 25 -77 26 -108 2z"/>
<path d="M1083 833 c-4 -10 -11 -22 -17 -26 -8 -6 -7 -10 2 -14 6 -2 12 -22
12 -43 0 -21 3 -45 6 -54 7 -17 54 -22 54 -6 0 6 -7 10 -15 10 -11 0 -15 12
-15 45 0 33 4 45 15 45 8 0 15 5 15 10 0 6 -7 10 -15 10 -8 0 -15 6 -15 14 0
23 -19 29 -27 9z"/>
<path d="M1400 818 c0 -25 -3 -29 -12 -20 -32 32 -88 -1 -88 -51 0 -42 31 -65
84 -65 l46 1 0 84 c0 67 -3 83 -15 83 -10 0 -15 -10 -15 -32z m-10 -47 c15
-30 12 -49 -11 -61 -25 -14 -49 2 -49 34 0 43 41 61 60 27z"/>
<path d="M1530 767 l0 -84 49 -1 c55 -1 68 8 77 55 8 43 -26 78 -67 69 -26 -5
-29 -3 -29 19 0 16 -6 25 -15 25 -12 0 -15 -16 -15 -83z m88 11 c30 -30 -2
-93 -36 -71 -21 13 -27 50 -12 69 15 17 32 18 48 2z"/>
<path d="M1958 778 c-3 -61 -6 -73 -21 -76 -12 -3 -20 4 -24 17 -6 24 -33 29
-33 7 0 -22 29 -46 55 -46 42 0 55 25 55 101 0 54 -3 69 -15 69 -11 0 -15 -17
-17 -72z"/>
<path d="M2180 765 c0 -69 3 -85 15 -85 9 0 15 9 15 24 0 37 17 40 36 6 10
-16 26 -30 36 -30 16 0 15 5 -8 40 l-27 41 23 24 c21 22 21 25 5 25 -10 0 -28
-12 -41 -27 l-24 -28 0 48 c0 35 -4 47 -15 47 -12 0 -15 -16 -15 -85z"/>
<path d="M2530 765 l0 -85 50 0 c65 0 100 30 100 85 0 55 -35 85 -100 85 l-50
0 0 -85z m98 49 c15 -10 22 -25 22 -48 0 -38 -23 -62 -62 -64 -28 -2 -28 -1
-28 63 0 61 1 65 23 65 12 0 33 -7 45 -16z"/>
<path d="M2980 765 c0 -69 3 -85 15 -85 11 0 15 12 15 49 0 35 4 51 16 55 26
10 34 -3 34 -55 0 -37 4 -49 15 -49 11 0 15 13 15 54 0 61 -16 82 -55 72 -22
-6 -25 -3 -25 19 0 16 -6 25 -15 25 -12 0 -15 -16 -15 -85z"/>
<path d="M690 744 c0 -50 3 -64 15 -64 11 0 15 12 15 44 0 37 5 48 27 64 l26
19 -41 0 -42 0 0 -63z"/>
<path d="M790 790 c-56 -56 21 -143 86 -96 26 20 10 32 -21 16 -20 -11 -27
-11 -40 0 -23 19 -18 30 13 29 59 -3 72 0 65 19 -19 52 -67 68 -103 32z m68
-17 c2 -9 -7 -13 -28 -13 -28 0 -31 2 -20 15 15 18 41 16 48 -2z"/>
<path d="M929 790 c-23 -19 -23 -19 -3 -20 11 0 25 5 31 11 13 13 43 5 43 -10
0 -5 -18 -12 -40 -16 -27 -4 -41 -13 -45 -26 -11 -33 11 -48 69 -46 l53 1 -5
51 c-6 74 -52 98 -103 55z m71 -64 c0 -18 -39 -31 -52 -18 -15 15 0 32 28 32
14 0 24 -6 24 -14z"/>
<path d="M1180 790 c-11 -11 -20 -31 -20 -45 0 -52 69 -85 104 -49 23 23 8 39
-16 18 -14 -14 -23 -16 -35 -8 -25 15 -28 36 -7 34 11 -1 33 -2 51 -1 26 1 31
4 26 19 -19 52 -67 68 -103 32z m54 -6 c26 -10 18 -24 -14 -24 -29 0 -38 9
-23 23 8 9 17 9 37 1z"/>
<path d="M1675 793 c4 -10 15 -42 25 -70 19 -52 19 -53 -1 -63 -24 -14 -25
-30 0 -30 25 0 35 14 65 94 30 79 31 86 12 86 -7 0 -19 -20 -27 -47 l-13 -47
-19 47 c-11 26 -26 47 -34 47 -10 0 -13 -6 -8 -17z"/>
<path d="M2034 788 c-19 -21 -19 -21 6 -14 40 12 63 12 67 0 2 -7 -11 -14 -31
-18 -43 -8 -64 -31 -49 -54 7 -12 25 -17 65 -18 l55 -1 -5 51 c-2 30 -11 56
-20 64 -24 19 -67 14 -88 -10z m64 -79 c-19 -13 -43 -6 -43 11 0 20 49 31 53
12 2 -8 -2 -19 -10 -23z"/>
<path d="M2330 790 c-11 -11 -20 -33 -20 -49 0 -51 69 -81 104 -45 26 26 18
36 -13 18 -25 -15 -32 -15 -45 -5 -17 14 -22 32 -8 30 4 -1 24 -1 45 0 30 1
37 5 37 20 0 22 -35 51 -62 51 -10 0 -27 -9 -38 -20z m54 -6 c26 -10 18 -24
-14 -24 -30 0 -41 14 -17 23 6 3 13 6 14 6 1 1 8 -2 17 -5z"/>
<path d="M2700 756 c0 -63 10 -74 68 -73 l42 0 0 63 c0 50 -3 64 -15 64 -11 0
-15 -11 -15 -42 0 -51 -12 -73 -34 -65 -12 5 -16 20 -16 57 0 38 -4 50 -15 50
-11 0 -15 -13 -15 -54z"/>
<path d="M2840 744 c0 -50 3 -64 15 -64 11 0 15 12 15 49 0 35 4 51 16 55 26
10 34 -3 34 -55 0 -37 4 -49 15 -49 11 0 15 13 15 54 0 63 -10 74 -67 73 l-43
0 0 -63z"/>
<path d="M3148 803 c-21 -5 -24 -33 -5 -33 7 0 18 5 24 11 13 13 43 5 43 -10
0 -5 -15 -12 -34 -15 -43 -8 -64 -31 -49 -54 7 -12 25 -17 65 -18 l55 -1 -5
51 c-6 68 -30 86 -94 69z m62 -77 c0 -18 -39 -31 -52 -18 -15 15 0 32 28 32
14 0 24 -6 24 -14z"/>
<path d="M3270 744 c0 -50 3 -64 15 -64 11 0 15 12 15 49 0 35 4 51 16 55 26
10 34 -3 34 -55 0 -36 4 -49 14 -49 11 0 16 15 18 53 3 44 6 52 23 52 17 0 20
-8 23 -52 2 -38 7 -53 18 -53 18 0 20 100 2 118 -15 15 -55 16 -63 2 -4 -7
-11 -8 -18 -2 -7 5 -31 10 -54 9 l-43 0 0 -63z"/>
<path d="M533 573 c-4 -10 -11 -22 -17 -26 -8 -6 -7 -10 2 -14 7 -3 12 -25 12
-59 0 -41 4 -54 15 -54 11 0 15 13 15 54 0 34 5 56 13 59 9 4 8 8 -3 16 -12 9
-12 11 3 17 9 3 14 10 11 15 -9 16 -44 10 -51 -8z"/>
<path d="M1120 505 c0 -69 3 -85 15 -85 12 0 15 14 15 63 l0 62 38 -62 c22
-38 44 -63 55 -63 15 0 17 11 17 85 0 69 -3 85 -15 85 -12 0 -15 -14 -15 -62
l0 -61 -40 61 c-56 88 -70 83 -70 -23z"/>
<path d="M1800 505 c0 -69 3 -85 15 -85 10 0 15 11 15 35 0 34 1 35 39 35 50
0 75 23 66 59 -9 35 -21 41 -82 41 l-53 0 0 -85z m88 59 c17 -3 22 -10 20 -27
-2 -18 -11 -23 -40 -25 -36 -3 -38 -2 -38 26 0 30 12 35 58 26z"/>
<path d="M2200 580 c0 -5 7 -10 15 -10 8 0 15 5 15 10 0 6 -7 10 -15 10 -8 0
-15 -4 -15 -10z"/>
<path d="M2563 583 c-7 -3 -13 -11 -13 -18 0 -7 -6 -16 -12 -18 -10 -4 -10 -7
-1 -14 6 -5 13 -31 15 -58 3 -46 5 -50 31 -53 29 -4 37 12 12 22 -10 3 -15 19
-15 46 0 29 4 40 15 40 8 0 15 5 15 10 0 6 -6 10 -14 10 -8 0 -16 8 -18 18 -2
11 -9 17 -15 15z"/>
<path d="M600 484 c0 -49 3 -64 14 -64 11 0 16 14 18 47 2 38 8 50 26 59 28
14 19 21 -25 22 l-33 1 0 -65z"/>
<path d="M700 530 c-11 -11 -20 -31 -20 -45 0 -14 9 -34 20 -45 11 -11 31 -20
45 -20 14 0 34 9 45 20 11 11 20 31 20 45 0 14 -9 34 -20 45 -11 11 -31 20
-45 20 -14 0 -34 -9 -45 -20z m68 -12 c32 -32 1 -89 -37 -68 -26 13 -28 55 -3
69 22 13 26 13 40 -1z"/>
<path d="M830 485 c0 -51 3 -65 15 -65 11 0 15 12 15 49 0 35 4 51 16 55 26
10 34 -3 34 -55 0 -37 4 -49 15 -49 11 0 15 12 15 49 0 35 4 51 16 55 26 10
34 -3 34 -55 0 -37 4 -49 15 -49 19 0 21 100 3 118 -14 14 -54 16 -63 2 -4 -6
-13 -5 -25 3 -16 9 -24 9 -40 -1 -12 -7 -20 -8 -20 -2 0 5 -7 10 -15 10 -12 0
-15 -14 -15 -65z"/>
<path d="M1310 530 c-11 -11 -20 -31 -20 -45 0 -14 9 -34 20 -45 11 -11 31
-20 45 -20 14 0 34 9 45 20 11 11 20 31 20 45 0 14 -9 34 -20 45 -11 11 -31
20 -45 20 -14 0 -34 -9 -45 -20z m70 -14 c28 -34 -11 -94 -44 -67 -21 18 -20
57 2 70 23 14 28 13 42 -3z"/>
<path d="M1440 496 c0 -63 10 -74 68 -73 l42 0 0 63 c0 50 -3 64 -15 64 -11 0
-15 -12 -15 -49 0 -35 -4 -51 -16 -55 -26 -10 -34 3 -34 55 0 37 -4 49 -15 49
-11 0 -15 -13 -15 -54z"/>
<path d="M1580 485 c0 -51 3 -65 15 -65 11 0 15 12 15 49 0 35 4 51 16 55 26
10 34 -3 34 -55 0 -38 4 -49 15 -49 13 0 15 11 13 56 -3 66 -23 88 -58 66 -12
-7 -20 -8 -20 -2 0 5 -7 10 -15 10 -12 0 -15 -14 -15 -65z"/>
<path d="M1960 484 c0 -49 3 -64 14 -64 11 0 16 14 18 47 2 39 7 50 28 60 14
7 23 13 20 14 -3 1 -22 3 -42 4 l-38 4 0 -65z"/>
<path d="M2080 543 c-63 -23 -43 -123 25 -123 14 0 34 9 45 20 50 50 -2 127
-70 103z m48 -25 c32 -32 1 -89 -37 -68 -26 13 -28 55 -3 69 22 13 26 13 40
-1z"/>
<path d="M2200 471 c0 -54 -4 -81 -12 -84 -7 -2 -9 -8 -5 -13 4 -4 16 -3 25 2
24 16 31 174 7 174 -12 0 -15 -15 -15 -79z"/>
<path d="M2270 530 c-11 -11 -20 -31 -20 -45 0 -52 69 -85 104 -49 26 26 18
36 -15 19 -24 -13 -34 -14 -45 -4 -19 16 -18 31 4 28 49 -5 72 1 72 19 0 25
-31 52 -58 52 -12 0 -31 -9 -42 -20z m68 -17 c2 -9 -7 -13 -27 -13 -31 0 -42
14 -18 23 19 8 40 3 45 -10z"/>
<path d="M2410 530 c-41 -41 -13 -110 46 -110 19 0 54 28 54 43 0 13 -23 7
-35 -9 -18 -26 -57 -1 -53 33 4 34 35 54 51 33 16 -20 37 -23 37 -5 0 35 -69
46 -100 15z"/>
</g>
</svg>
