<svg viewBox="0 0 800 800" width="100%" height="100%" xmlns="http://www.w3.org/2000/svg" style="background:transparent;">
  <defs>
    <!-- Dark plastic gradients for different faces -->
    <linearGradient id="frontGrad" x1="0%" y1="0%" x2="100%" y2="100%">
      <stop offset="0%" stop-color="#242426" />
      <stop offset="100%" stop-color="#141415" />
    </linearGradient>
    <linearGradient id="rightGrad" x1="0%" y1="0%" x2="100%" y2="100%">
      <stop offset="0%" stop-color="#1b1b1c" />
      <stop offset="100%" stop-color="#0c0c0d" />
    </linearGradient>
    <linearGradient id="innerGrad" x1="0%" y1="0%" x2="100%" y2="100%">
      <stop offset="0%" stop-color="#111112" />
      <stop offset="100%" stop-color="#080809" />
    </linearGradient>
    
    <!-- Record spine color palettes -->
    <linearGradient id="spineYellow" x1="0%" y1="0%" x2="0%" y2="100%">
      <stop offset="0%" stop-color="#e8dcb9" /><stop offset="10%" stop-color="#fdf6e2" />
      <stop offset="90%" stop-color="#e5d4a4" /><stop offset="100%" stop-color="#bda773" />
    </linearGradient>
    <linearGradient id="spineRed" x1="0%" y1="0%" x2="0%" y2="100%">
      <stop offset="0%" stop-color="#9a342b" /><stop offset="15%" stop-color="#c84b31" />
      <stop offset="85%" stop-color="#a83a24" /><stop offset="100%" stop-color="#691a11" />
    </linearGradient>
    <linearGradient id="spineBlue" x1="0%" y1="0%" x2="0%" y2="100%">
      <stop offset="0%" stop-color="#2c4c64" /><stop offset="15%" stop-color="#41729f" />
      <stop offset="85%" stop-color="#275885" /><stop offset="100%" stop-color="#14365d" />
    </linearGradient>
    <linearGradient id="spineGreen" x1="0%" y1="0%" x2="0%" y2="100%">
      <stop offset="0%" stop-color="#34543d" /><stop offset="15%" stop-color="#52795d" />
      <stop offset="85%" stop-color="#3c6146" /><stop offset="100%" stop-color="#1e3a24" />
    </linearGradient>
    <linearGradient id="spineCream" x1="0%" y1="0%" x2="0%" y2="100%">
      <stop offset="0%" stop-color="#e6dfd3" /><stop offset="10%" stop-color="#f5f0e6" />
      <stop offset="90%" stop-color="#dfd5c6" /><stop offset="100%" stop-color="#baa891" />
    </linearGradient>
    <linearGradient id="spineBlack" x1="0%" y1="0%" x2="0%" y2="100%">
      <stop offset="0%" stop-color="#2d2d30" /><stop offset="15%" stop-color="#424246" />
      <stop offset="85%" stop-color="#212124" /><stop offset="100%" stop-color="#111112" />
    </linearGradient>
    <linearGradient id="spineOrange" x1="0%" y1="0%" x2="0%" y2="100%">
      <stop offset="0%" stop-color="#b65a25" /><stop offset="15%" stop-color="#d97436" />
      <stop offset="85%" stop-color="#b85c26" /><stop offset="100%" stop-color="#7c3710" />
    </linearGradient>
    
    <!-- Crate drop shadow -->
    <filter id="shadow" x="-20%" y="-20%" width="140%" height="140%">
      <feDropShadow dx="10" dy="25" stdDeviation="15" flood-color="#000000" flood-opacity="0.65" />
    </filter>
  </defs>
  <!-- Drop Shadow Plane -->
  <polygon points="400.0,610.0 121.8,497.6 359.3,349.2 637.5,461.6" fill="#0a0a0b" filter="url(#shadow)" opacity="0.9" />
  <!-- Inner Back Walls -->
  <polygon points="121.8,497.6 359.3,349.2 359.3,99.2 121.8,247.6" fill="url(#innerGrad)" />
  <polygon points="400.0,610.0 637.5,461.6 637.5,211.6 400.0,360.0" fill="url(#innerGrad)" />
  <!-- Records Stack -->
  <!-- Record 0 -->
  <polygon points="391.7,590.8 616.4,450.4 603.7,213.3 378.9,353.7" fill="#181819" />
  <polygon points="378.9,353.7 603.7,213.3 603.7,209.8 378.9,350.2" fill="url(#spineCream)" stroke="#000" stroke-width="0.3" />
  <polygon points="495.9,277.2 550.1,243.3 548.4,239.4 494.2,273.2" fill="#edebe4" stroke="#cfcbbb" stroke-width="0.3" />
  <!-- Record 1 -->
  <polygon points="388.8,589.5 613.6,449.1 600.8,212.0 376.1,352.5" fill="#181819" />
  <polygon points="376.1,352.5 600.8,212.0 600.8,208.5 376.1,349.0" fill="url(#spineBlack)" stroke="#000" stroke-width="0.3" />
  <polygon points="523.4,256.9 556.0,236.5 554.3,232.6 521.7,253.0" fill="#edebe4" stroke="#cfcbbb" stroke-width="0.3" />
  <!-- Record 2 -->
  <polygon points="385.5,588.1 610.3,447.6 597.5,210.6 372.8,351.0" fill="#181819" />
  <polygon points="372.8,351.0 597.5,210.6 597.5,207.1 372.8,347.5" fill="url(#spineBlack)" stroke="#000" stroke-width="0.3" />
  <!-- Record 3 -->
  <polygon points="380.4,586.8 605.1,446.3 592.4,209.3 367.6,349.7" fill="#181819" />
  <polygon points="367.6,349.7 592.4,209.3 592.4,205.8 367.6,346.2" fill="url(#spineBlack)" stroke="#000" stroke-width="0.3" />
  <!-- Record 4 -->
  <polygon points="376.7,584.4 601.4,444.0 588.7,206.9 363.9,347.4" fill="#181819" />
  <polygon points="363.9,347.4 588.7,206.9 588.7,203.4 363.9,343.9" fill="url(#spineBlue)" stroke="#000" stroke-width="0.3" />
  <polygon points="415.9,311.4 470.4,277.3 468.7,273.4 414.2,307.5" fill="#edebe4" stroke="#cfcbbb" stroke-width="0.3" />
  <!-- Record 5 -->
  <polygon points="374.3,584.0 599.0,443.6 586.3,206.5 361.6,346.9" fill="#181819" />
  <polygon points="361.6,346.9 586.3,206.5 586.3,203.0 361.6,343.4" fill="url(#spineBlue)" stroke="#000" stroke-width="0.3" />
  <polygon points="481.4,268.6 547.1,227.5 545.4,223.6 479.7,264.6" fill="#edebe4" stroke="#cfcbbb" stroke-width="0.3" />
  <!-- Record 6 -->
  <polygon points="370.3,581.8 595.0,441.4 582.3,204.3 357.5,344.7" fill="#181819" />
  <polygon points="357.5,344.7 582.3,204.3 582.3,200.8 357.5,341.2" fill="url(#spineBlack)" stroke="#000" stroke-width="0.3" />
  <polygon points="478.5,265.6 526.2,235.8 524.5,231.9 476.8,261.7" fill="#edebe4" stroke="#cfcbbb" stroke-width="0.3" />
  <!-- Record 7 -->
  <polygon points="365.2,580.4 589.9,440.0 577.2,202.9 352.5,343.4" fill="#181819" />
  <polygon points="352.5,343.4 577.2,202.9 577.2,199.4 352.5,339.9" fill="url(#spineBlack)" stroke="#000" stroke-width="0.3" />
  <polygon points="367.1,330.7 413.4,301.8 411.7,297.8 365.4,326.8" fill="#edebe4" stroke="#cfcbbb" stroke-width="0.3" />
  <!-- Record 8 -->
  <polygon points="362.4,578.7 587.2,438.2 574.5,201.2 349.7,341.6" fill="#181819" />
  <polygon points="349.7,341.6 574.5,201.2 574.5,197.7 349.7,338.1" fill="url(#spineBlack)" stroke="#000" stroke-width="0.3" />
  <!-- Record 9 -->
  <polygon points="358.6,578.3 583.3,437.9 570.6,200.8 345.8,341.3" fill="#181819" />
  <polygon points="345.8,341.3 570.6,200.8 570.6,197.3 345.8,337.8" fill="url(#spineRed)" stroke="#000" stroke-width="0.3" />
  <!-- Record 10 -->
  <polygon points="354.2,575.9 578.9,435.5 566.2,198.4 341.5,338.9" fill="#181819" />
  <polygon points="341.5,338.9 566.2,198.4 566.2,194.9 341.5,335.4" fill="url(#spineOrange)" stroke="#000" stroke-width="0.3" />
  <!-- Record 11 -->
  <polygon points="348.9,574.0 573.6,433.6 560.9,196.5 336.1,336.9" fill="#181819" />
  <polygon points="336.1,336.9 560.9,196.5 560.9,193.0 336.1,333.4" fill="url(#spineBlue)" stroke="#000" stroke-width="0.3" />
  <polygon points="453.2,260.3 498.1,232.2 496.4,228.3 451.5,256.3" fill="#edebe4" stroke="#cfcbbb" stroke-width="0.3" />
  <!-- Record 12 -->
  <polygon points="346.0,573.0 570.7,432.6 558.0,195.5 333.2,336.0" fill="#181819" />
  <polygon points="333.2,336.0 558.0,195.5 558.0,192.0 333.2,332.5" fill="url(#spineBlack)" stroke="#000" stroke-width="0.3" />
  <polygon points="367.0,311.4 415.1,281.3 413.4,277.4 365.3,307.4" fill="#edebe4" stroke="#cfcbbb" stroke-width="0.3" />
  <!-- Record 13 -->
  <polygon points="343.1,571.0 567.8,430.6 555.1,193.6 330.3,334.0" fill="#181819" />
  <polygon points="330.3,334.0 555.1,193.6 555.1,190.1 330.3,330.5" fill="url(#spineRed)" stroke="#000" stroke-width="0.3" />
  <!-- Record 14 -->
  <polygon points="339.1,569.8 563.8,429.3 551.1,192.3 326.3,332.7" fill="#181819" />
  <polygon points="326.3,332.7 551.1,192.3 551.1,188.8 326.3,329.2" fill="url(#spineBlack)" stroke="#000" stroke-width="0.3" />
  <polygon points="407.9,278.2 426.1,266.9 424.4,262.9 406.2,274.3" fill="#edebe4" stroke="#cfcbbb" stroke-width="0.3" />
  <!-- Record 15 -->
  <polygon points="335.4,568.0 560.1,427.6 547.4,190.6 322.7,331.0" fill="#181819" />
  <polygon points="322.7,331.0 547.4,190.6 547.4,187.1 322.7,327.5" fill="url(#spineBlack)" stroke="#000" stroke-width="0.3" />
  <!-- Record 16 -->
  <polygon points="331.4,566.6 556.2,426.2 543.5,189.1 318.7,329.5" fill="#181819" />
  <polygon points="318.7,329.5 543.5,189.1 543.5,185.6 318.7,326.0" fill="url(#spineCream)" stroke="#000" stroke-width="0.3" />
  <!-- Record 17 -->
  <polygon points="327.7,564.6 552.4,424.2 539.7,187.1 315.0,327.6" fill="#181819" />
  <polygon points="315.0,327.6 539.7,187.1 539.7,183.6 315.0,324.1" fill="url(#spineYellow)" stroke="#000" stroke-width="0.3" />
  <!-- Record 18 -->
  <polygon points="325.8,563.7 550.5,423.3 537.8,186.3 313.1,326.7" fill="#181819" />
  <polygon points="313.1,326.7 537.8,186.3 537.8,182.8 313.1,323.2" fill="url(#spineGreen)" stroke="#000" stroke-width="0.3" />
  <polygon points="399.1,269.4 460.7,230.9 459.0,227.0 397.4,265.5" fill="#edebe4" stroke="#cfcbbb" stroke-width="0.3" />
  <!-- Record 19 -->
  <polygon points="320.6,562.1 545.4,421.7 532.6,184.6 307.9,325.0" fill="#181819" />
  <polygon points="307.9,325.0 532.6,184.6 532.6,181.1 307.9,321.5" fill="url(#spineCream)" stroke="#000" stroke-width="0.3" />
  <polygon points="356.6,291.1 375.8,279.1 374.1,275.2 354.9,287.2" fill="#edebe4" stroke="#cfcbbb" stroke-width="0.3" />
  <!-- Record 20 -->
  <polygon points="315.2,560.0 539.9,419.6 527.2,182.6 302.5,323.0" fill="#181819" />
  <polygon points="302.5,323.0 527.2,182.6 527.2,179.1 302.5,319.5" fill="url(#spineYellow)" stroke="#000" stroke-width="0.3" />
  <!-- Record 21 -->
  <polygon points="314.0,559.5 538.7,419.1 526.0,182.0 301.3,322.5" fill="#181819" />
  <polygon points="301.3,322.5 526.0,182.0 526.0,178.5 301.3,319.0" fill="url(#spineBlue)" stroke="#000" stroke-width="0.3" />
  <polygon points="339.7,295.0 370.0,276.0 368.4,272.0 338.0,291.0" fill="#edebe4" stroke="#cfcbbb" stroke-width="0.3" />
  <!-- Record 22 -->
  <polygon points="310.0,558.0 534.7,417.5 522.0,180.5 297.2,320.9" fill="#181819" />
  <polygon points="297.2,320.9 522.0,180.5 522.0,177.0 297.2,317.4" fill="url(#spineGreen)" stroke="#000" stroke-width="0.3" />
  <polygon points="405.3,249.9 430.4,234.2 428.7,230.3 403.6,246.0" fill="#edebe4" stroke="#cfcbbb" stroke-width="0.3" />
  <!-- Record 23 -->
  <polygon points="304.3,555.6 529.0,415.2 516.3,178.1 291.5,318.6" fill="#181819" />
  <polygon points="291.5,318.6 516.3,178.1 516.3,174.6 291.5,315.1" fill="url(#spineGreen)" stroke="#000" stroke-width="0.3" />
  <polygon points="430.1,228.5 495.8,187.5 494.1,183.5 428.4,224.6" fill="#edebe4" stroke="#cfcbbb" stroke-width="0.3" />
  <!-- Record 24 -->
  <polygon points="300.0,554.2 524.7,413.7 512.0,176.7 287.3,317.1" fill="#181819" />
  <polygon points="287.3,317.1 512.0,176.7 512.0,173.2 287.3,313.6" fill="url(#spineBlack)" stroke="#000" stroke-width="0.3" />
  <polygon points="300.0,305.7 333.3,284.8 331.6,280.9 298.3,301.7" fill="#edebe4" stroke="#cfcbbb" stroke-width="0.3" />
  <!-- Record 25 -->
  <polygon points="297.1,553.1 521.8,412.6 509.1,175.6 284.4,316.0" fill="#181819" />
  <polygon points="284.4,316.0 509.1,175.6 509.1,172.1 284.4,312.5" fill="url(#spineBlack)" stroke="#000" stroke-width="0.3" />
  <polygon points="336.9,279.7 402.7,238.6 401.0,234.6 335.2,275.7" fill="#edebe4" stroke="#cfcbbb" stroke-width="0.3" />
  <!-- Record 26 -->
  <polygon points="293.5,552.0 518.2,411.6 505.5,174.5 280.8,314.9" fill="#181819" />
  <polygon points="280.8,314.9 505.5,174.5 505.5,171.0 280.8,311.4" fill="url(#spineBlue)" stroke="#000" stroke-width="0.3" />
  <!-- Record 27 -->
  <polygon points="290.9,549.6 515.6,409.2 502.9,172.2 278.2,312.6" fill="#181819" />
  <polygon points="278.2,312.6 502.9,172.2 502.9,168.7 278.2,309.1" fill="url(#spineGreen)" stroke="#000" stroke-width="0.3" />
  <!-- Record 28 -->
  <polygon points="286.3,548.1 511.0,407.7 498.3,170.6 273.5,311.1" fill="#181819" />
  <polygon points="273.5,311.1 498.3,170.6 498.3,167.1 273.5,307.6" fill="url(#spineBlue)" stroke="#000" stroke-width="0.3" />
  <!-- Record 29 -->
  <polygon points="281.5,546.7 506.2,406.3 493.5,169.2 268.7,309.7" fill="#181819" />
  <polygon points="268.7,309.7 493.5,169.2 493.5,165.7 268.7,306.2" fill="url(#spineYellow)" stroke="#000" stroke-width="0.3" />
  <!-- Record 30 -->
  <polygon points="279.8,546.0 504.5,405.5 491.8,168.5 267.0,308.9" fill="#181819" />
  <polygon points="267.0,308.9 491.8,168.5 491.8,165.0 267.0,305.4" fill="url(#spineBlue)" stroke="#000" stroke-width="0.3" />
  <polygon points="415.0,213.0 478.1,173.5 476.4,169.6 413.3,209.0" fill="#edebe4" stroke="#cfcbbb" stroke-width="0.3" />
  <!-- Record 31 -->
  <polygon points="276.3,544.4 501.0,404.0 488.3,166.9 263.6,307.4" fill="#181819" />
  <polygon points="263.6,307.4 488.3,166.9 488.3,163.4 263.6,303.9" fill="url(#spineCream)" stroke="#000" stroke-width="0.3" />
  <!-- Record 32 -->
  <polygon points="270.8,542.8 495.6,402.4 482.8,165.3 258.1,305.7" fill="#181819" />
  <polygon points="258.1,305.7 482.8,165.3 482.8,161.8 258.1,302.2" fill="url(#spineBlack)" stroke="#000" stroke-width="0.3" />
  <!-- Record 33 -->
  <polygon points="266.3,540.8 491.0,400.3 478.3,163.3 253.6,303.7" fill="#181819" />
  <polygon points="253.6,303.7 478.3,163.3 478.3,159.8 253.6,300.2" fill="url(#spineRed)" stroke="#000" stroke-width="0.3" />
  <!-- Record 34 -->
  <polygon points="264.5,539.5 489.2,399.0 476.5,162.0 251.8,302.4" fill="#181819" />
  <polygon points="251.8,302.4 476.5,162.0 476.5,158.5 251.8,298.9" fill="url(#spineYellow)" stroke="#000" stroke-width="0.3" />
  <polygon points="368.0,226.3 392.8,210.8 391.1,206.9 366.3,222.3" fill="#edebe4" stroke="#cfcbbb" stroke-width="0.3" />
  <!-- Record 35 -->
  <polygon points="259.6,537.5 484.3,397.1 471.6,160.1 246.8,300.5" fill="#181819" />
  <polygon points="246.8,300.5 471.6,160.1 471.6,156.6 246.8,297.0" fill="url(#spineYellow)" stroke="#000" stroke-width="0.3" />
  <polygon points="276.0,278.7 293.8,267.6 292.1,263.7 274.4,274.8" fill="#edebe4" stroke="#cfcbbb" stroke-width="0.3" />
  <!-- Record 36 -->
  <polygon points="255.0,535.7 479.7,395.2 467.0,158.2 242.2,298.6" fill="#181819" />
  <polygon points="242.2,298.6 467.0,158.2 467.0,154.7 242.2,295.1" fill="url(#spineOrange)" stroke="#000" stroke-width="0.3" />
  <polygon points="353.6,225.5 417.9,185.4 416.2,181.4 351.9,221.6" fill="#edebe4" stroke="#cfcbbb" stroke-width="0.3" />
  <!-- Record 37 -->
  <polygon points="253.1,535.7 477.8,395.3 465.1,158.2 240.4,298.7" fill="#181819" />
  <polygon points="240.4,298.7 465.1,158.2 465.1,154.7 240.4,295.2" fill="url(#spineOrange)" stroke="#000" stroke-width="0.3" />
  <!-- Record 38 -->
  <polygon points="249.6,533.4 474.4,393.0 461.6,155.9 236.9,296.4" fill="#181819" />
  <polygon points="236.9,296.4 461.6,155.9 461.6,152.4 236.9,292.9" fill="url(#spineYellow)" stroke="#000" stroke-width="0.3" />
  <polygon points="358.1,217.2 398.5,191.9 396.8,188.0 356.4,213.2" fill="#edebe4" stroke="#cfcbbb" stroke-width="0.3" />
  <!-- Record 39 -->
  <polygon points="243.9,531.8 468.7,391.4 455.9,154.3 231.2,294.7" fill="#181819" />
  <polygon points="231.2,294.7 455.9,154.3 455.9,150.8 231.2,291.2" fill="url(#spineOrange)" stroke="#000" stroke-width="0.3" />
  <polygon points="327.9,230.8 362.8,209.0 361.1,205.1 326.2,226.9" fill="#edebe4" stroke="#cfcbbb" stroke-width="0.3" />
  <!-- Record 40 -->
  <polygon points="240.5,529.7 465.3,389.3 452.6,152.2 227.8,292.7" fill="#181819" />
  <polygon points="227.8,292.7 452.6,152.2 452.6,148.7 227.8,289.2" fill="url(#spineYellow)" stroke="#000" stroke-width="0.3" />
  <polygon points="356.5,208.8 405.5,178.1 403.8,174.2 354.8,204.8" fill="#edebe4" stroke="#cfcbbb" stroke-width="0.3" />
  <!-- Record 41 -->
  <polygon points="237.5,529.6 462.2,389.1 449.5,152.1 224.8,292.5" fill="#181819" />
  <polygon points="224.8,292.5 449.5,152.1 449.5,148.6 224.8,289.0" fill="url(#spineRed)" stroke="#000" stroke-width="0.3" />
  <!-- Record 42 -->
  <polygon points="233.2,527.0 457.9,386.6 445.2,149.5 220.4,289.9" fill="#181819" />
  <polygon points="220.4,289.9 445.2,149.5 445.2,146.0 220.4,286.4" fill="url(#spineGreen)" stroke="#000" stroke-width="0.3" />
  <!-- Record 43 -->
  <polygon points="228.4,525.3 453.1,384.9 440.4,147.8 215.7,288.3" fill="#181819" />
  <polygon points="215.7,288.3 440.4,147.8 440.4,144.3 215.7,284.8" fill="url(#spineYellow)" stroke="#000" stroke-width="0.3" />
  <polygon points="343.3,205.0 381.4,181.2 379.7,177.3 341.6,201.1" fill="#edebe4" stroke="#cfcbbb" stroke-width="0.3" />
  <!-- Record 44 -->
  <polygon points="225.5,524.6 450.2,384.1 437.5,147.1 212.8,287.5" fill="#181819" />
  <polygon points="212.8,287.5 437.5,147.1 437.5,143.6 212.8,284.0" fill="url(#spineBlack)" stroke="#000" stroke-width="0.3" />
  <!-- Record 45 -->
  <polygon points="220.5,522.7 445.3,382.2 432.6,145.2 207.8,285.6" fill="#181819" />
  <polygon points="207.8,285.6 432.6,145.2 432.6,141.7 207.8,282.1" fill="url(#spineBlack)" stroke="#000" stroke-width="0.3" />
  <!-- Record 46 -->
  <polygon points="219.4,520.8 444.2,380.4 431.5,143.3 206.7,283.8" fill="#181819" />
  <polygon points="206.7,283.8 431.5,143.3 431.5,139.8 206.7,280.3" fill="url(#spineYellow)" stroke="#000" stroke-width="0.3" />
  <polygon points="223.5,269.8 288.9,228.9 287.2,225.0 221.8,265.9" fill="#edebe4" stroke="#cfcbbb" stroke-width="0.3" />
  <!-- Record 47 -->
  <polygon points="215.0,519.2 439.8,378.8 427.1,141.7 202.3,282.1" fill="#181819" />
  <polygon points="202.3,282.1 427.1,141.7 427.1,138.2 202.3,278.6" fill="url(#spineYellow)" stroke="#000" stroke-width="0.3" />
  <polygon points="283.9,227.7 349.6,186.6 347.9,182.7 282.2,223.8" fill="#edebe4" stroke="#cfcbbb" stroke-width="0.3" />
  <!-- Record 48 -->
  <polygon points="210.0,517.4 434.7,377.0 422.0,140.0 197.3,280.4" fill="#181819" />
  <polygon points="197.3,280.4 422.0,140.0 422.0,136.5 197.3,276.9" fill="url(#spineRed)" stroke="#000" stroke-width="0.3" />
  <!-- Record 49 -->
  <polygon points="206.1,516.2 430.8,375.8 418.1,138.7 193.3,279.1" fill="#181819" />
  <polygon points="193.3,279.1 418.1,138.7 418.1,135.2 193.3,275.6" fill="url(#spineBlue)" stroke="#000" stroke-width="0.3" />
  <!-- Record 50 -->
  <polygon points="203.3,514.6 428.0,374.2 415.3,137.1 190.6,277.5" fill="#181819" />
  <polygon points="190.6,277.5 415.3,137.1 415.3,133.6 190.6,274.0" fill="url(#spineYellow)" stroke="#000" stroke-width="0.3" />
  <!-- Record 51 -->
  <polygon points="199.4,512.9 424.1,372.5 411.4,135.4 186.6,275.9" fill="#181819" />
  <polygon points="186.6,275.9 411.4,135.4 411.4,131.9 186.6,272.4" fill="url(#spineYellow)" stroke="#000" stroke-width="0.3" />
  <!-- Record 52 -->
  <polygon points="195.8,512.2 420.5,371.8 407.8,134.7 183.0,275.1" fill="#181819" />
  <polygon points="183.0,275.1 407.8,134.7 407.8,131.2 183.0,271.6" fill="url(#spineGreen)" stroke="#000" stroke-width="0.3" />
  <!-- Record 53 -->
  <polygon points="192.6,510.1 417.3,369.7 404.6,132.6 179.9,273.1" fill="#181819" />
  <polygon points="179.9,273.1 404.6,132.6 404.6,129.1 179.9,269.6" fill="url(#spineBlack)" stroke="#000" stroke-width="0.3" />
  <!-- Record 54 -->
  <polygon points="189.2,508.6 414.0,368.1 401.2,131.1 176.5,271.5" fill="#181819" />
  <polygon points="176.5,271.5 401.2,131.1 401.2,127.6 176.5,268.0" fill="url(#spineYellow)" stroke="#000" stroke-width="0.3" />
  <polygon points="207.1,248.9 264.0,213.4 262.3,209.4 205.4,245.0" fill="#edebe4" stroke="#cfcbbb" stroke-width="0.3" />
  <!-- Record 55 -->
  <polygon points="185.8,507.4 410.5,367.0 397.8,129.9 173.1,270.3" fill="#181819" />
  <polygon points="173.1,270.3 397.8,129.9 397.8,126.4 173.1,266.8" fill="url(#spineCream)" stroke="#000" stroke-width="0.3" />
  <polygon points="242.7,223.4 285.2,196.8 283.5,192.9 241.0,219.4" fill="#edebe4" stroke="#cfcbbb" stroke-width="0.3" />
  <!-- Record 56 -->
  <polygon points="181.0,506.0 405.7,365.5 393.0,128.5 168.3,268.9" fill="#181819" />
  <polygon points="168.3,268.9 393.0,128.5 393.0,125.0 168.3,265.4" fill="url(#spineCream)" stroke="#000" stroke-width="0.3" />
  <!-- Record 57 -->
  <polygon points="176.0,504.4 400.8,363.9 388.0,126.9 163.3,267.3" fill="#181819" />
  <polygon points="163.3,267.3 388.0,126.9 388.0,123.4 163.3,263.8" fill="url(#spineBlack)" stroke="#000" stroke-width="0.3" />
  <!-- Record 58 -->
  <polygon points="172.4,502.8 397.1,362.4 384.4,125.3 159.6,265.7" fill="#181819" />
  <polygon points="159.6,265.7 384.4,125.3 384.4,121.8 159.6,262.2" fill="url(#spineGreen)" stroke="#000" stroke-width="0.3" />
  <polygon points="218.6,225.4 236.8,214.0 235.1,210.1 216.9,221.5" fill="#edebe4" stroke="#cfcbbb" stroke-width="0.3" />
  <!-- Record 59 -->
  <polygon points="168.7,501.6 393.4,361.1 380.7,124.1 155.9,264.5" fill="#181819" />
  <polygon points="155.9,264.5 380.7,124.1 380.7,120.6 155.9,261.0" fill="url(#spineBlack)" stroke="#000" stroke-width="0.3" />
  <polygon points="297.3,172.7 315.7,161.2 314.0,157.3 295.6,168.7" fill="#edebe4" stroke="#cfcbbb" stroke-width="0.3" />
  <!-- Record 60 -->
  <polygon points="165.7,500.1 390.5,359.6 377.7,122.6 153.0,263.0" fill="#181819" />
  <polygon points="153.0,263.0 377.7,122.6 377.7,119.1 153.0,259.5" fill="url(#spineCream)" stroke="#000" stroke-width="0.3" />
  <!-- Record 61 -->
  <polygon points="161.4,498.9 386.1,358.5 373.4,121.4 148.6,261.9" fill="#181819" />
  <polygon points="148.6,261.9 373.4,121.4 373.4,117.9 148.6,258.4" fill="url(#spineBlack)" stroke="#000" stroke-width="0.3" />
  <polygon points="221.0,213.2 260.0,188.8 258.4,184.8 219.3,209.2" fill="#edebe4" stroke="#cfcbbb" stroke-width="0.3" />
  <!-- Record 62 -->
  <polygon points="156.8,496.2 381.5,355.8 368.8,118.7 144.0,259.2" fill="#181819" />
  <polygon points="144.0,259.2 368.8,118.7 368.8,115.2 144.0,255.7" fill="url(#spineCream)" stroke="#000" stroke-width="0.3" />
  <polygon points="182.4,231.7 225.3,204.9 223.6,200.9 180.7,227.8" fill="#edebe4" stroke="#cfcbbb" stroke-width="0.3" />
  <!-- Record 63 -->
  <polygon points="154.7,495.1 379.5,354.7 366.8,117.7 142.0,258.1" fill="#181819" />
  <polygon points="142.0,258.1 366.8,117.7 366.8,114.2 142.0,254.6" fill="url(#spineCream)" stroke="#000" stroke-width="0.3" />
  <polygon points="155.0,246.5 209.9,212.2 208.2,208.2 153.3,242.5" fill="#edebe4" stroke="#cfcbbb" stroke-width="0.3" />
  <!-- Record 64 -->
  <polygon points="152.1,493.8 376.8,353.4 364.1,116.3 139.3,256.8" fill="#181819" />
  <polygon points="139.3,256.8 364.1,116.3 364.1,112.8 139.3,253.3" fill="url(#spineRed)" stroke="#000" stroke-width="0.3" />
  <polygon points="240.5,190.0 264.4,175.1 262.7,171.2 238.8,186.1" fill="#edebe4" stroke="#cfcbbb" stroke-width="0.3" />
  <!-- Front-Left Wall Panel with Cutout Handle -->
  <path d="M 121.8,497.6 L 400.0,610.0 L 400.0,360.0 L 121.8,247.6 Z M 300.0,175.0 L 300.0,179.4 L 300.0,183.5 L 300.0,187.0 L 300.0,189.7 L 300.0,191.4 L 300.0,192.0 L 300.0,192.0 L 300.0,191.4 L 300.0,189.7 L 300.0,187.0 L 300.0,183.5 L 300.0,179.4 L 300.0,175.0 L 300.0,175.0 L 300.0,170.6 L 300.0,166.5 L 300.0,163.0 L 300.0,160.3 L 300.0,158.6 L 300.0,158.0 L 300.0,158.0 L 300.0,158.6 L 300.0,160.3 L 300.0,163.0 L 300.0,166.5 L 300.0,170.6 L 300.0,175.0 Z" fill="url(#frontGrad)" fill-rule="evenodd" stroke="#111" stroke-width="1.0" />
  <path d="M 300.0,175.0 L 300.0,170.6 L 300.0,166.5 L 300.0,163.0 L 300.0,160.3 L 300.0,158.6 L 300.0,158.0 L 300.0,158.0 L 300.0,158.6 L 300.0,160.3 L 300.0,163.0 L 300.0,166.5 L 300.0,170.6 L 300.0,175.0 L 300.0,175.0 L 300.0,179.4 L 300.0,183.5 L 300.0,187.0 L 300.0,189.7 L 300.0,191.4 L 300.0,192.0 L 300.0,192.0 L 300.0,191.4 L 300.0,189.7 L 300.0,187.0 L 300.0,183.5 L 300.0,179.4 L 300.0,175.0 Z" fill="none" stroke="#3a3a3d" stroke-width="3" opacity="0.8" />
  <!-- Front Lattice Ribs -->
  <line x1="386.1" y1="499.4" x2="362.9" y2="465.0" stroke="#2a2a2d" stroke-width="6" stroke-linecap="round" />
  <line x1="386.1" y1="534.4" x2="330.5" y2="451.9" stroke="#2a2a2d" stroke-width="6" stroke-linecap="round" />
  <line x1="386.1" y1="569.4" x2="298.0" y2="438.8" stroke="#2a2a2d" stroke-width="6" stroke-linecap="round" />
  <line x1="376.8" y1="590.6" x2="265.6" y2="425.7" stroke="#2a2a2d" stroke-width="6" stroke-linecap="round" />
  <line x1="376.8" y1="590.6" x2="386.1" y2="584.4" stroke="#2a2a2d" stroke-width="6" stroke-linecap="round" />
  <line x1="344.4" y1="577.5" x2="233.1" y2="412.6" stroke="#2a2a2d" stroke-width="6" stroke-linecap="round" />
  <line x1="344.4" y1="577.5" x2="386.1" y2="549.4" stroke="#2a2a2d" stroke-width="6" stroke-linecap="round" />
  <line x1="311.9" y1="564.4" x2="200.7" y2="399.5" stroke="#2a2a2d" stroke-width="6" stroke-linecap="round" />
  <line x1="311.9" y1="564.4" x2="386.1" y2="514.4" stroke="#2a2a2d" stroke-width="6" stroke-linecap="round" />
  <line x1="279.5" y1="551.3" x2="168.2" y2="386.3" stroke="#2a2a2d" stroke-width="6" stroke-linecap="round" />
  <line x1="279.5" y1="551.3" x2="386.1" y2="479.4" stroke="#2a2a2d" stroke-width="6" stroke-linecap="round" />
  <line x1="247.0" y1="538.2" x2="135.8" y2="373.2" stroke="#2a2a2d" stroke-width="6" stroke-linecap="round" />
  <line x1="247.0" y1="538.2" x2="358.3" y2="463.1" stroke="#2a2a2d" stroke-width="6" stroke-linecap="round" />
  <line x1="214.6" y1="525.1" x2="135.8" y2="408.2" stroke="#2a2a2d" stroke-width="6" stroke-linecap="round" />
  <line x1="214.6" y1="525.1" x2="325.8" y2="450.0" stroke="#2a2a2d" stroke-width="6" stroke-linecap="round" />
  <line x1="182.1" y1="512.0" x2="135.8" y2="443.2" stroke="#2a2a2d" stroke-width="6" stroke-linecap="round" />
  <line x1="182.1" y1="512.0" x2="293.4" y2="436.9" stroke="#2a2a2d" stroke-width="6" stroke-linecap="round" />
  <line x1="149.7" y1="498.9" x2="135.8" y2="478.2" stroke="#2a2a2d" stroke-width="6" stroke-linecap="round" />
  <line x1="149.7" y1="498.9" x2="260.9" y2="423.8" stroke="#2a2a2d" stroke-width="6" stroke-linecap="round" />
  <line x1="135.8" y1="473.2" x2="228.5" y2="410.7" stroke="#2a2a2d" stroke-width="6" stroke-linecap="round" />
  <line x1="135.8" y1="438.2" x2="196.0" y2="397.6" stroke="#2a2a2d" stroke-width="6" stroke-linecap="round" />
  <line x1="135.8" y1="403.2" x2="163.6" y2="384.5" stroke="#2a2a2d" stroke-width="6" stroke-linecap="round" />
  <polygon points="135.8,493.2 386.1,594.4 386.1,474.4 135.8,373.2" fill="none" stroke="#161617" stroke-width="5" />
  <polygon points="360.1,398.9 375.0,404.9 375.0,392.9 360.1,386.9" fill="#080809" stroke="#333" stroke-width="0.5" />
  <polygon points="332.3,387.7 347.2,393.6 347.2,381.6 332.3,375.7" fill="#080809" stroke="#333" stroke-width="0.5" />
  <polygon points="304.5,376.4 319.3,382.4 319.3,370.4 304.5,364.4" fill="#080809" stroke="#333" stroke-width="0.5" />
  <polygon points="276.7,365.2 291.5,371.2 291.5,359.2 276.7,353.2" fill="#080809" stroke="#333" stroke-width="0.5" />
  <polygon points="248.9,353.9 263.7,359.9 263.7,347.9 248.9,341.9" fill="#080809" stroke="#333" stroke-width="0.5" />
  <polygon points="221.1,342.7 235.9,348.7 235.9,336.7 221.1,330.7" fill="#080809" stroke="#333" stroke-width="0.5" />
  <polygon points="193.2,331.5 208.1,337.5 208.1,325.5 193.2,319.5" fill="#080809" stroke="#333" stroke-width="0.5" />
  <polygon points="165.4,320.2 180.3,326.2 180.3,314.2 165.4,308.2" fill="#080809" stroke="#333" stroke-width="0.5" />
  <line x1="386.1" y1="462.4" x2="135.8" y2="361.2" stroke="#131314" stroke-width="4" />
  <line x1="386.1" y1="463.9" x2="135.8" y2="362.7" stroke="#36363a" stroke-width="1.5" opacity="0.6" />
  <line x1="386.1" y1="450.4" x2="135.8" y2="349.2" stroke="#131314" stroke-width="4" />
  <line x1="386.1" y1="451.9" x2="135.8" y2="350.7" stroke="#36363a" stroke-width="1.5" opacity="0.6" />
  <line x1="386.1" y1="438.4" x2="135.8" y2="337.2" stroke="#131314" stroke-width="4" />
  <line x1="386.1" y1="439.9" x2="135.8" y2="338.7" stroke="#36363a" stroke-width="1.5" opacity="0.6" />
  <line x1="386.1" y1="426.4" x2="135.8" y2="325.2" stroke="#131314" stroke-width="4" />
  <line x1="386.1" y1="427.9" x2="135.8" y2="326.7" stroke="#36363a" stroke-width="1.5" opacity="0.6" />
  <!-- Right Wall Panel with Cutout Handle -->
  <path d="M 400.0,610.0 L 637.5,461.6 L 637.5,211.6 L 400.0,360.0 Z M 85.0,175.0 L 85.6,179.4 L 87.3,183.5 L 90.0,187.0 L 93.5,189.7 L 97.6,191.4 L 102.0,192.0 L 178.0,192.0 L 182.4,191.4 L 186.5,189.7 L 190.0,187.0 L 192.7,183.5 L 194.4,179.4 L 195.0,175.0 L 195.0,175.0 L 194.4,170.6 L 192.7,166.5 L 190.0,163.0 L 186.5,160.3 L 182.4,158.6 L 178.0,158.0 L 102.0,158.0 L 97.6,158.6 L 93.5,160.3 L 90.0,163.0 L 87.3,166.5 L 85.6,170.6 L 85.0,175.0 Z" fill="url(#rightGrad)" fill-rule="evenodd" stroke="#080809" stroke-width="1.0" />
  <path d="M 85.0,175.0 L 85.6,170.6 L 87.3,166.5 L 90.0,163.0 L 93.5,160.3 L 97.6,158.6 L 102.0,158.0 L 178.0,158.0 L 182.4,158.6 L 186.5,160.3 L 190.0,163.0 L 192.7,166.5 L 194.4,170.6 L 195.0,175.0 L 195.0,175.0 L 194.4,179.4 L 192.7,183.5 L 190.0,187.0 L 186.5,189.7 L 182.4,191.4 L 178.0,192.0 L 102.0,192.0 L 97.6,191.4 L 93.5,189.7 L 90.0,187.0 L 87.3,183.5 L 85.6,179.4 L 85.0,175.0 Z" fill="none" stroke="#2c2c2f" stroke-width="3" opacity="0.6" />
  <!-- Right Lattice Ribs -->
  <line x1="412.7" y1="497.1" x2="433.9" y2="458.8" stroke="#212124" stroke-width="5" stroke-linecap="round" />
  <line x1="412.7" y1="532.1" x2="463.6" y2="440.3" stroke="#212124" stroke-width="5" stroke-linecap="round" />
  <line x1="412.7" y1="567.1" x2="493.3" y2="421.7" stroke="#212124" stroke-width="5" stroke-linecap="round" />
  <line x1="421.2" y1="586.8" x2="523.0" y2="403.2" stroke="#212124" stroke-width="5" stroke-linecap="round" />
  <line x1="421.2" y1="586.8" x2="412.7" y2="582.1" stroke="#212124" stroke-width="5" stroke-linecap="round" />
  <line x1="450.9" y1="568.2" x2="552.6" y2="384.6" stroke="#212124" stroke-width="5" stroke-linecap="round" />
  <line x1="450.9" y1="568.2" x2="412.7" y2="547.1" stroke="#212124" stroke-width="5" stroke-linecap="round" />
  <line x1="480.6" y1="549.7" x2="582.3" y2="366.1" stroke="#212124" stroke-width="5" stroke-linecap="round" />
  <line x1="480.6" y1="549.7" x2="412.7" y2="512.1" stroke="#212124" stroke-width="5" stroke-linecap="round" />
  <line x1="510.2" y1="531.1" x2="612.0" y2="347.5" stroke="#212124" stroke-width="5" stroke-linecap="round" />
  <line x1="510.2" y1="531.1" x2="412.7" y2="477.1" stroke="#212124" stroke-width="5" stroke-linecap="round" />
  <line x1="539.9" y1="512.6" x2="624.7" y2="359.6" stroke="#212124" stroke-width="5" stroke-linecap="round" />
  <line x1="539.9" y1="512.6" x2="438.2" y2="456.2" stroke="#212124" stroke-width="5" stroke-linecap="round" />
  <line x1="569.6" y1="494.0" x2="624.7" y2="394.6" stroke="#212124" stroke-width="5" stroke-linecap="round" />
  <line x1="569.6" y1="494.0" x2="467.8" y2="437.6" stroke="#212124" stroke-width="5" stroke-linecap="round" />
  <line x1="599.3" y1="475.5" x2="624.7" y2="429.6" stroke="#212124" stroke-width="5" stroke-linecap="round" />
  <line x1="599.3" y1="475.5" x2="497.5" y2="419.1" stroke="#212124" stroke-width="5" stroke-linecap="round" />
  <line x1="624.7" y1="454.6" x2="527.2" y2="400.5" stroke="#212124" stroke-width="5" stroke-linecap="round" />
  <line x1="624.7" y1="419.6" x2="556.9" y2="382.0" stroke="#212124" stroke-width="5" stroke-linecap="round" />
  <line x1="624.7" y1="384.6" x2="586.6" y2="363.4" stroke="#212124" stroke-width="5" stroke-linecap="round" />
  <line x1="624.7" y1="349.6" x2="616.3" y2="344.9" stroke="#212124" stroke-width="5" stroke-linecap="round" />
  <polygon points="412.7,592.1 624.7,459.6 624.7,339.6 412.7,472.1" fill="none" stroke="#0f0f10" stroke-width="5" />
  <polygon points="436.5,392.2 422.9,400.7 422.9,388.7 436.5,380.2" fill="#050506" stroke="#252528" stroke-width="0.5" />
  <polygon points="461.9,376.3 448.3,384.8 448.3,372.8 461.9,364.3" fill="#050506" stroke="#252528" stroke-width="0.5" />
  <polygon points="487.3,360.4 473.8,368.9 473.8,356.9 487.3,348.4" fill="#050506" stroke="#252528" stroke-width="0.5" />
  <polygon points="512.8,344.5 499.2,353.0 499.2,341.0 512.8,332.5" fill="#050506" stroke="#252528" stroke-width="0.5" />
  <polygon points="538.2,328.6 524.7,337.1 524.7,325.1 538.2,316.6" fill="#050506" stroke="#252528" stroke-width="0.5" />
  <polygon points="563.7,312.7 550.1,321.2 550.1,309.2 563.7,300.7" fill="#050506" stroke="#252528" stroke-width="0.5" />
  <polygon points="589.1,296.8 575.5,305.3 575.5,293.3 589.1,284.8" fill="#050506" stroke="#252528" stroke-width="0.5" />
  <line x1="412.7" y1="460.1" x2="624.7" y2="327.6" stroke="#0f0f10" stroke-width="4" />
  <line x1="412.7" y1="461.6" x2="624.7" y2="329.1" stroke="#2c2c2f" stroke-width="1.5" opacity="0.4" />
  <line x1="412.7" y1="448.1" x2="624.7" y2="315.6" stroke="#0f0f10" stroke-width="4" />
  <line x1="412.7" y1="449.6" x2="624.7" y2="317.1" stroke="#2c2c2f" stroke-width="1.5" opacity="0.4" />
  <line x1="412.7" y1="436.1" x2="624.7" y2="303.6" stroke="#0f0f10" stroke-width="4" />
  <line x1="412.7" y1="437.6" x2="624.7" y2="305.1" stroke="#2c2c2f" stroke-width="1.5" opacity="0.4" />
  <line x1="412.7" y1="424.1" x2="624.7" y2="291.6" stroke="#0f0f10" stroke-width="4" />
  <line x1="412.7" y1="425.6" x2="624.7" y2="293.1" stroke="#2c2c2f" stroke-width="1.5" opacity="0.4" />
  <!-- Corner Pillars -->
  <!-- Center Column -->
  <polygon points="400.0,610.0 386.1,604.4 386.1,354.4 400.0,360.0" fill="#2e2e31" stroke="#1c1c1e" stroke-width="0.5" />
  <polygon points="400.0,610.0 412.7,602.1 412.7,352.1 400.0,360.0" fill="#1d1d1f" stroke="#111112" stroke-width="0.5" />
  <line x1="400.0" y1="595.0" x2="386.1" y2="589.4" stroke="#131314" stroke-width="3" />
  <line x1="400.0" y1="596.0" x2="386.1" y2="590.4" stroke="#48484d" stroke-width="1" opacity="0.6" />
  <line x1="400.0" y1="595.0" x2="412.7" y2="587.1" stroke="#0b0b0c" stroke-width="3" />
  <line x1="400.0" y1="596.0" x2="412.7" y2="588.1" stroke="#2f2f32" stroke-width="1" opacity="0.4" />
  <line x1="400.0" y1="580.0" x2="386.1" y2="574.4" stroke="#131314" stroke-width="3" />
  <line x1="400.0" y1="581.0" x2="386.1" y2="575.4" stroke="#48484d" stroke-width="1" opacity="0.6" />
  <line x1="400.0" y1="580.0" x2="412.7" y2="572.1" stroke="#0b0b0c" stroke-width="3" />
  <line x1="400.0" y1="581.0" x2="412.7" y2="573.1" stroke="#2f2f32" stroke-width="1" opacity="0.4" />
  <line x1="400.0" y1="565.0" x2="386.1" y2="559.4" stroke="#131314" stroke-width="3" />
  <line x1="400.0" y1="566.0" x2="386.1" y2="560.4" stroke="#48484d" stroke-width="1" opacity="0.6" />
  <line x1="400.0" y1="565.0" x2="412.7" y2="557.1" stroke="#0b0b0c" stroke-width="3" />
  <line x1="400.0" y1="566.0" x2="412.7" y2="558.1" stroke="#2f2f32" stroke-width="1" opacity="0.4" />
  <line x1="400.0" y1="550.0" x2="386.1" y2="544.4" stroke="#131314" stroke-width="3" />
  <line x1="400.0" y1="551.0" x2="386.1" y2="545.4" stroke="#48484d" stroke-width="1" opacity="0.6" />
  <line x1="400.0" y1="550.0" x2="412.7" y2="542.1" stroke="#0b0b0c" stroke-width="3" />
  <line x1="400.0" y1="551.0" x2="412.7" y2="543.1" stroke="#2f2f32" stroke-width="1" opacity="0.4" />
  <line x1="400.0" y1="535.0" x2="386.1" y2="529.4" stroke="#131314" stroke-width="3" />
  <line x1="400.0" y1="536.0" x2="386.1" y2="530.4" stroke="#48484d" stroke-width="1" opacity="0.6" />
  <line x1="400.0" y1="535.0" x2="412.7" y2="527.1" stroke="#0b0b0c" stroke-width="3" />
  <line x1="400.0" y1="536.0" x2="412.7" y2="528.1" stroke="#2f2f32" stroke-width="1" opacity="0.4" />
  <line x1="400.0" y1="520.0" x2="386.1" y2="514.4" stroke="#131314" stroke-width="3" />
  <line x1="400.0" y1="521.0" x2="386.1" y2="515.4" stroke="#48484d" stroke-width="1" opacity="0.6" />
  <line x1="400.0" y1="520.0" x2="412.7" y2="512.1" stroke="#0b0b0c" stroke-width="3" />
  <line x1="400.0" y1="521.0" x2="412.7" y2="513.1" stroke="#2f2f32" stroke-width="1" opacity="0.4" />
  <line x1="400.0" y1="505.0" x2="386.1" y2="499.4" stroke="#131314" stroke-width="3" />
  <line x1="400.0" y1="506.0" x2="386.1" y2="500.4" stroke="#48484d" stroke-width="1" opacity="0.6" />
  <line x1="400.0" y1="505.0" x2="412.7" y2="497.1" stroke="#0b0b0c" stroke-width="3" />
  <line x1="400.0" y1="506.0" x2="412.7" y2="498.1" stroke="#2f2f32" stroke-width="1" opacity="0.4" />
  <line x1="400.0" y1="490.0" x2="386.1" y2="484.4" stroke="#131314" stroke-width="3" />
  <line x1="400.0" y1="491.0" x2="386.1" y2="485.4" stroke="#48484d" stroke-width="1" opacity="0.6" />
  <line x1="400.0" y1="490.0" x2="412.7" y2="482.1" stroke="#0b0b0c" stroke-width="3" />
  <line x1="400.0" y1="491.0" x2="412.7" y2="483.1" stroke="#2f2f32" stroke-width="1" opacity="0.4" />
  <line x1="400.0" y1="475.0" x2="386.1" y2="469.4" stroke="#131314" stroke-width="3" />
  <line x1="400.0" y1="476.0" x2="386.1" y2="470.4" stroke="#48484d" stroke-width="1" opacity="0.6" />
  <line x1="400.0" y1="475.0" x2="412.7" y2="467.1" stroke="#0b0b0c" stroke-width="3" />
  <line x1="400.0" y1="476.0" x2="412.7" y2="468.1" stroke="#2f2f32" stroke-width="1" opacity="0.4" />
  <line x1="400.0" y1="460.0" x2="386.1" y2="454.4" stroke="#131314" stroke-width="3" />
  <line x1="400.0" y1="461.0" x2="386.1" y2="455.4" stroke="#48484d" stroke-width="1" opacity="0.6" />
  <line x1="400.0" y1="460.0" x2="412.7" y2="452.1" stroke="#0b0b0c" stroke-width="3" />
  <line x1="400.0" y1="461.0" x2="412.7" y2="453.1" stroke="#2f2f32" stroke-width="1" opacity="0.4" />
  <line x1="400.0" y1="445.0" x2="386.1" y2="439.4" stroke="#131314" stroke-width="3" />
  <line x1="400.0" y1="446.0" x2="386.1" y2="440.4" stroke="#48484d" stroke-width="1" opacity="0.6" />
  <line x1="400.0" y1="445.0" x2="412.7" y2="437.1" stroke="#0b0b0c" stroke-width="3" />
  <line x1="400.0" y1="446.0" x2="412.7" y2="438.1" stroke="#2f2f32" stroke-width="1" opacity="0.4" />
  <line x1="400.0" y1="430.0" x2="386.1" y2="424.4" stroke="#131314" stroke-width="3" />
  <line x1="400.0" y1="431.0" x2="386.1" y2="425.4" stroke="#48484d" stroke-width="1" opacity="0.6" />
  <line x1="400.0" y1="430.0" x2="412.7" y2="422.1" stroke="#0b0b0c" stroke-width="3" />
  <line x1="400.0" y1="431.0" x2="412.7" y2="423.1" stroke="#2f2f32" stroke-width="1" opacity="0.4" />
  <line x1="400.0" y1="415.0" x2="386.1" y2="409.4" stroke="#131314" stroke-width="3" />
  <line x1="400.0" y1="416.0" x2="386.1" y2="410.4" stroke="#48484d" stroke-width="1" opacity="0.6" />
  <line x1="400.0" y1="415.0" x2="412.7" y2="407.1" stroke="#0b0b0c" stroke-width="3" />
  <line x1="400.0" y1="416.0" x2="412.7" y2="408.1" stroke="#2f2f32" stroke-width="1" opacity="0.4" />
  <line x1="400.0" y1="400.0" x2="386.1" y2="394.4" stroke="#131314" stroke-width="3" />
  <line x1="400.0" y1="401.0" x2="386.1" y2="395.4" stroke="#48484d" stroke-width="1" opacity="0.6" />
  <line x1="400.0" y1="400.0" x2="412.7" y2="392.1" stroke="#0b0b0c" stroke-width="3" />
  <line x1="400.0" y1="401.0" x2="412.7" y2="393.1" stroke="#2f2f32" stroke-width="1" opacity="0.4" />
  <line x1="400.0" y1="385.0" x2="386.1" y2="379.4" stroke="#131314" stroke-width="3" />
  <line x1="400.0" y1="386.0" x2="386.1" y2="380.4" stroke="#48484d" stroke-width="1" opacity="0.6" />
  <line x1="400.0" y1="385.0" x2="412.7" y2="377.1" stroke="#0b0b0c" stroke-width="3" />
  <line x1="400.0" y1="386.0" x2="412.7" y2="378.1" stroke="#2f2f32" stroke-width="1" opacity="0.4" />
  <line x1="400.0" y1="370.0" x2="386.1" y2="364.4" stroke="#131314" stroke-width="3" />
  <line x1="400.0" y1="371.0" x2="386.1" y2="365.4" stroke="#48484d" stroke-width="1" opacity="0.6" />
  <line x1="400.0" y1="370.0" x2="412.7" y2="362.1" stroke="#0b0b0c" stroke-width="3" />
  <line x1="400.0" y1="371.0" x2="412.7" y2="363.1" stroke="#2f2f32" stroke-width="1" opacity="0.4" />
  <!-- Left Column -->
  <polygon points="121.8,497.6 135.8,503.2 135.8,253.2 121.8,247.6" fill="#272729" stroke="#18181a" stroke-width="0.5" />
  <polygon points="121.8,497.6 128.6,493.4 128.6,243.4 121.8,247.6" fill="#161618" stroke="#0d0d0e" stroke-width="0.5" />
  <line x1="121.8" y1="482.6" x2="135.8" y2="488.2" stroke="#131314" stroke-width="3" />
  <line x1="121.8" y1="483.6" x2="135.8" y2="489.2" stroke="#3d3d42" stroke-width="1" opacity="0.5" />
  <line x1="121.8" y1="467.6" x2="135.8" y2="473.2" stroke="#131314" stroke-width="3" />
  <line x1="121.8" y1="468.6" x2="135.8" y2="474.2" stroke="#3d3d42" stroke-width="1" opacity="0.5" />
  <line x1="121.8" y1="452.6" x2="135.8" y2="458.2" stroke="#131314" stroke-width="3" />
  <line x1="121.8" y1="453.6" x2="135.8" y2="459.2" stroke="#3d3d42" stroke-width="1" opacity="0.5" />
  <line x1="121.8" y1="437.6" x2="135.8" y2="443.2" stroke="#131314" stroke-width="3" />
  <line x1="121.8" y1="438.6" x2="135.8" y2="444.2" stroke="#3d3d42" stroke-width="1" opacity="0.5" />
  <line x1="121.8" y1="422.6" x2="135.8" y2="428.2" stroke="#131314" stroke-width="3" />
  <line x1="121.8" y1="423.6" x2="135.8" y2="429.2" stroke="#3d3d42" stroke-width="1" opacity="0.5" />
  <line x1="121.8" y1="407.6" x2="135.8" y2="413.2" stroke="#131314" stroke-width="3" />
  <line x1="121.8" y1="408.6" x2="135.8" y2="414.2" stroke="#3d3d42" stroke-width="1" opacity="0.5" />
  <line x1="121.8" y1="392.6" x2="135.8" y2="398.2" stroke="#131314" stroke-width="3" />
  <line x1="121.8" y1="393.6" x2="135.8" y2="399.2" stroke="#3d3d42" stroke-width="1" opacity="0.5" />
  <line x1="121.8" y1="377.6" x2="135.8" y2="383.2" stroke="#131314" stroke-width="3" />
  <line x1="121.8" y1="378.6" x2="135.8" y2="384.2" stroke="#3d3d42" stroke-width="1" opacity="0.5" />
  <line x1="121.8" y1="362.6" x2="135.8" y2="368.2" stroke="#131314" stroke-width="3" />
  <line x1="121.8" y1="363.6" x2="135.8" y2="369.2" stroke="#3d3d42" stroke-width="1" opacity="0.5" />
  <line x1="121.8" y1="347.6" x2="135.8" y2="353.2" stroke="#131314" stroke-width="3" />
  <line x1="121.8" y1="348.6" x2="135.8" y2="354.2" stroke="#3d3d42" stroke-width="1" opacity="0.5" />
  <line x1="121.8" y1="332.6" x2="135.8" y2="338.2" stroke="#131314" stroke-width="3" />
  <line x1="121.8" y1="333.6" x2="135.8" y2="339.2" stroke="#3d3d42" stroke-width="1" opacity="0.5" />
  <line x1="121.8" y1="317.6" x2="135.8" y2="323.2" stroke="#131314" stroke-width="3" />
  <line x1="121.8" y1="318.6" x2="135.8" y2="324.2" stroke="#3d3d42" stroke-width="1" opacity="0.5" />
  <line x1="121.8" y1="302.6" x2="135.8" y2="308.2" stroke="#131314" stroke-width="3" />
  <line x1="121.8" y1="303.6" x2="135.8" y2="309.2" stroke="#3d3d42" stroke-width="1" opacity="0.5" />
  <line x1="121.8" y1="287.6" x2="135.8" y2="293.2" stroke="#131314" stroke-width="3" />
  <line x1="121.8" y1="288.6" x2="135.8" y2="294.2" stroke="#3d3d42" stroke-width="1" opacity="0.5" />
  <line x1="121.8" y1="272.6" x2="135.8" y2="278.2" stroke="#131314" stroke-width="3" />
  <line x1="121.8" y1="273.6" x2="135.8" y2="279.2" stroke="#3d3d42" stroke-width="1" opacity="0.5" />
  <line x1="121.8" y1="257.6" x2="135.8" y2="263.2" stroke="#131314" stroke-width="3" />
  <line x1="121.8" y1="258.6" x2="135.8" y2="264.2" stroke="#3d3d42" stroke-width="1" opacity="0.5" />
  <!-- Right Column -->
  <polygon points="637.5,461.6 624.7,469.6 624.7,219.6 637.5,211.6" fill="#141415" stroke="#080809" stroke-width="0.5" />
  <polygon points="637.5,461.6 630.0,458.6 630.0,208.6 637.5,211.6" fill="#1a1a1c" stroke="#0f0f10" stroke-width="0.5" />
  <line x1="637.5" y1="446.6" x2="624.7" y2="454.6" stroke="#09090a" stroke-width="3" />
  <line x1="637.5" y1="447.6" x2="624.7" y2="455.6" stroke="#2c2c2f" stroke-width="1" opacity="0.4" />
  <line x1="637.5" y1="431.6" x2="624.7" y2="439.6" stroke="#09090a" stroke-width="3" />
  <line x1="637.5" y1="432.6" x2="624.7" y2="440.6" stroke="#2c2c2f" stroke-width="1" opacity="0.4" />
  <line x1="637.5" y1="416.6" x2="624.7" y2="424.6" stroke="#09090a" stroke-width="3" />
  <line x1="637.5" y1="417.6" x2="624.7" y2="425.6" stroke="#2c2c2f" stroke-width="1" opacity="0.4" />
  <line x1="637.5" y1="401.6" x2="624.7" y2="409.6" stroke="#09090a" stroke-width="3" />
  <line x1="637.5" y1="402.6" x2="624.7" y2="410.6" stroke="#2c2c2f" stroke-width="1" opacity="0.4" />
  <line x1="637.5" y1="386.6" x2="624.7" y2="394.6" stroke="#09090a" stroke-width="3" />
  <line x1="637.5" y1="387.6" x2="624.7" y2="395.6" stroke="#2c2c2f" stroke-width="1" opacity="0.4" />
  <line x1="637.5" y1="371.6" x2="624.7" y2="379.6" stroke="#09090a" stroke-width="3" />
  <line x1="637.5" y1="372.6" x2="624.7" y2="380.6" stroke="#2c2c2f" stroke-width="1" opacity="0.4" />
  <line x1="637.5" y1="356.6" x2="624.7" y2="364.6" stroke="#09090a" stroke-width="3" />
  <line x1="637.5" y1="357.6" x2="624.7" y2="365.6" stroke="#2c2c2f" stroke-width="1" opacity="0.4" />
  <line x1="637.5" y1="341.6" x2="624.7" y2="349.6" stroke="#09090a" stroke-width="3" />
  <line x1="637.5" y1="342.6" x2="624.7" y2="350.6" stroke="#2c2c2f" stroke-width="1" opacity="0.4" />
  <line x1="637.5" y1="326.6" x2="624.7" y2="334.6" stroke="#09090a" stroke-width="3" />
  <line x1="637.5" y1="327.6" x2="624.7" y2="335.6" stroke="#2c2c2f" stroke-width="1" opacity="0.4" />
  <line x1="637.5" y1="311.6" x2="624.7" y2="319.6" stroke="#09090a" stroke-width="3" />
  <line x1="637.5" y1="312.6" x2="624.7" y2="320.6" stroke="#2c2c2f" stroke-width="1" opacity="0.4" />
  <line x1="637.5" y1="296.6" x2="624.7" y2="304.6" stroke="#09090a" stroke-width="3" />
  <line x1="637.5" y1="297.6" x2="624.7" y2="305.6" stroke="#2c2c2f" stroke-width="1" opacity="0.4" />
  <line x1="637.5" y1="281.6" x2="624.7" y2="289.6" stroke="#09090a" stroke-width="3" />
  <line x1="637.5" y1="282.6" x2="624.7" y2="290.6" stroke="#2c2c2f" stroke-width="1" opacity="0.4" />
  <line x1="637.5" y1="266.6" x2="624.7" y2="274.6" stroke="#09090a" stroke-width="3" />
  <line x1="637.5" y1="267.6" x2="624.7" y2="275.6" stroke="#2c2c2f" stroke-width="1" opacity="0.4" />
  <line x1="637.5" y1="251.6" x2="624.7" y2="259.6" stroke="#09090a" stroke-width="3" />
  <line x1="637.5" y1="252.6" x2="624.7" y2="260.6" stroke="#2c2c2f" stroke-width="1" opacity="0.4" />
  <line x1="637.5" y1="236.6" x2="624.7" y2="244.6" stroke="#09090a" stroke-width="3" />
  <line x1="637.5" y1="237.6" x2="624.7" y2="245.6" stroke="#2c2c2f" stroke-width="1" opacity="0.4" />
  <line x1="637.5" y1="221.6" x2="624.7" y2="229.6" stroke="#09090a" stroke-width="3" />
  <line x1="637.5" y1="222.6" x2="624.7" y2="230.6" stroke="#2c2c2f" stroke-width="1" opacity="0.4" />
  <!-- Warped Shipping Label Sticker -->
  <polygon points="196.0,509.6 325.8,562.0 325.8,532.0 196.0,479.6" fill="#f2efe4" stroke="#d5d0be" stroke-width="1.0" />
  <polygon points="209.9,510.2 214.1,511.9 214.1,491.9 209.9,490.2" fill="#202022" />
  <polygon points="218.7,513.8 221.1,514.7 221.1,494.7 218.7,493.8" fill="#202022" />
  <polygon points="223.8,515.8 226.2,516.8 226.2,496.8 223.8,495.8" fill="#202022" />
  <polygon points="228.9,517.9 231.3,518.8 231.3,498.8 228.9,497.9" fill="#202022" />
  <polygon points="234.0,519.9 238.2,521.6 238.2,501.6 234.0,499.9" fill="#202022" />
  <polygon points="242.8,523.5 248.9,525.9 248.9,505.9 242.8,503.5" fill="#202022" />
  <polygon points="251.7,527.1 257.7,529.5 257.7,509.5 251.7,507.1" fill="#202022" />
  <polygon points="262.3,531.4 264.6,532.3 264.6,512.3 262.3,511.4" fill="#202022" />
  <polygon points="269.3,534.2 275.3,536.6 275.3,516.6 269.3,514.2" fill="#202022" />
  <polygon points="278.1,537.7 282.2,539.4 282.2,519.4 278.1,517.7" fill="#202022" />
  <polygon points="286.9,541.3 292.9,543.7 292.9,523.7 286.9,521.3" fill="#202022" />
  <polygon points="295.7,544.9 298.0,545.8 298.0,525.8 295.7,524.9" fill="#202022" />
  <polygon points="302.6,547.7 308.7,550.1 308.7,530.1 302.6,527.7" fill="#202022" />
  <polygon points="311.5,551.2 317.5,553.7 317.5,533.7 311.5,531.2" fill="#202022" />
  <line x1="200.7" y1="485.5" x2="242.4" y2="502.3" stroke="#505055" stroke-width="1.5" />
  <line x1="251.7" y1="506.1" x2="298.0" y2="524.8" stroke="#505055" stroke-width="1.5" />
  <line x1="205.3" y1="510.3" x2="270.2" y2="536.6" stroke="#65656b" stroke-width="1.0" />
  <!-- Rim Highlights -->
  <line x1="121.8" y1="247.6" x2="400.0" y2="360.0" stroke="#56565c" stroke-width="2.5" opacity="0.8" />
  <line x1="400.0" y1="360.0" x2="637.5" y2="211.6" stroke="#3d3d42" stroke-width="2.0" opacity="0.6" />
</svg>